<?xml version="1.0" standalone="no"?>
<!DOCTYPE svg PUBLIC "-//W3C//DTD SVG 20010904//EN"
 "http://www.w3.org/TR/2001/REC-SVG-20010904/DTD/svg10.dtd">
<svg version="1.0" xmlns="http://www.w3.org/2000/svg"
 width="400.000000pt" height="400.000000pt" viewBox="0 0 400.000000 400.000000"
 preserveAspectRatio="xMidYMid meet">
<metadata>
Created by potrace 1.14, written by Peter Selinger 2001-2017
</metadata>
<g transform="translate(0.000000,400.000000) scale(0.100000,-0.100000)"
fill="#000000" stroke="none">
<path d="M0 2000 l0 -2000 2000 0 2000 0 0 2000 0 2000 -2000 0 -2000 0 0
-2000z m2140 1865 c197 -18 345 -49 495 -104 101 -36 234 -98 260 -121 11 -10
55 -41 98 -69 42 -29 77 -56 77 -61 0 -4 24 -24 53 -44 90 -62 209 -155 241
-189 233 -247 391 -556 468 -917 20 -93 23 -133 23 -355 0 -221 -3 -263 -23
-364 -45 -220 -131 -442 -239 -613 -12 -21 -23 -40 -23 -43 0 -3 -9 -15 -20
-27 -11 -12 -20 -28 -20 -35 0 -7 -4 -13 -9 -13 -4 0 -20 -17 -33 -38 -73
-108 -245 -278 -338 -332 -38 -22 -72 -45 -75 -50 -3 -5 -28 -22 -55 -37 -34
-19 -50 -35 -50 -48 -1 -18 -1 -18 -11 -3 -17 29 -46 3 -41 -36 4 -27 3 -29
-11 -18 -9 8 -13 21 -10 29 4 11 3 14 -6 9 -7 -5 -10 -15 -7 -23 5 -12 1 -14
-14 -10 -11 3 -20 1 -20 -5 0 -5 -8 -8 -17 -7 -10 1 -58 -16 -106 -39 -49 -23
-92 -42 -97 -42 -4 0 -10 -4 -12 -8 -1 -4 -19 -15 -38 -24 -26 -13 -37 -14
-43 -5 -4 7 -7 153 -5 325 l3 314 -25 17 c-29 21 -141 65 -187 76 -18 3 -33
13 -33 20 0 7 -3 20 -6 29 -4 10 5 19 29 29 55 24 92 90 45 81 -13 -2 -16 -1
-8 2 8 4 23 13 32 21 9 8 21 12 26 9 6 -3 33 17 61 44 28 28 55 50 60 50 5 0
11 5 13 11 2 5 10 11 18 13 25 5 55 19 61 29 4 6 27 5 60 -2 65 -14 192 2 238
30 17 10 37 34 45 54 13 30 27 41 88 69 144 66 197 171 186 367 -11 212 -123
295 -375 277 -108 -7 -259 -31 -320 -50 -28 -8 -31 -12 -19 -24 12 -12 12 -20
0 -60 -17 -57 -30 -73 -18 -24 15 68 11 82 -33 114 -25 18 -42 39 -42 51 0 29
34 90 43 76 14 -22 153 -4 174 23 10 12 2 100 -24 259 -15 90 -15 104 2 194
19 108 11 184 -28 276 -24 54 -98 125 -140 134 -35 7 -45 20 -49 63 -3 31 -1
34 16 30 51 -13 162 -3 225 20 86 31 247 40 304 16 56 -23 57 -20 5 14 -25 17
-66 34 -90 39 -52 10 -40 17 51 30 58 9 52 9 -60 7 -99 -2 -138 -7 -189 -25
-35 -12 -68 -20 -75 -18 -12 4 93 60 169 89 l50 19 -67 -6 c-39 -3 -95 -17
-138 -35 -95 -39 -201 -62 -216 -46 -12 11 -43 100 -70 196 -23 84 -73 185
-108 219 -51 49 -115 72 -204 73 -89 1 -133 -7 -182 -32 -86 -44 -148 -157
-165 -300 -10 -81 -20 -92 -40 -45 -30 72 -155 404 -155 414 0 28 345 91 496
91 35 0 66 5 69 10 4 7 11 8 18 2 7 -6 46 -13 87 -17z m-718 -237 c25 -68 74
-210 109 -316 51 -152 67 -191 79 -186 8 3 20 8 25 10 16 7 19 -117 3 -127
-18 -12 -28 -11 -28 2 0 6 -9 24 -20 40 l-21 28 -66 -66 c-72 -73 -95 -116
-114 -211 -15 -81 -9 -131 36 -272 26 -81 39 -143 44 -211 8 -109 42 -196 74
-191 25 4 24 -59 -2 -82 -19 -17 -22 -17 -78 3 -110 39 -197 51 -361 51 -176
0 -216 -8 -255 -47 -76 -80 -109 -307 -60 -411 10 -21 54 -73 98 -117 62 -63
93 -86 140 -104 35 -14 79 -42 105 -67 25 -24 58 -48 73 -53 36 -14 118 -14
152 -1 17 6 32 6 45 0 11 -6 29 -15 40 -20 12 -6 25 -8 29 -5 5 3 7 -4 4 -15
-4 -17 0 -20 25 -20 21 0 31 -6 35 -20 3 -14 14 -20 31 -20 16 0 26 -6 26 -15
0 -8 9 -15 20 -15 12 0 20 -7 20 -16 0 -10 5 -14 15 -10 12 4 14 0 9 -18 -5
-23 12 -50 38 -58 10 -4 7 -17 -10 -51 -19 -39 -28 -46 -60 -52 -20 -3 -59
-18 -87 -33 l-50 -27 -6 -150 c-4 -83 -7 -236 -8 -341 0 -105 -4 -193 -7 -196
-6 -6 -44 7 -121 43 -24 10 -46 19 -50 19 -21 1 -276 139 -329 179 -12 9 -32
23 -44 31 -12 8 -28 20 -34 25 -6 6 -38 32 -71 60 -104 87 -275 272 -275 297
0 3 -8 23 -17 44 -9 22 -17 41 -17 44 -1 7 -48 72 -66 91 -95 100 -181 296
-238 544 -69 303 -51 678 48 985 32 101 96 236 136 285 24 30 24 30 128 30 94
0 107 2 128 22 16 15 25 36 26 61 2 33 -1 40 -23 50 -34 16 -35 15 -35 -8 0
-11 -4 -20 -9 -20 -5 0 -17 -3 -26 -6 -13 -5 -15 -2 -10 22 6 26 5 27 -6 9 -7
-11 -12 -22 -11 -25 2 -7 -50 -20 -59 -15 -8 6 12 55 23 55 4 0 5 6 2 13 -11
29 72 151 176 256 162 164 389 324 570 400 30 13 62 27 70 32 39 21 47 11 92
-113z m837 -642 c-15 -12 -32 -40 -39 -62 -18 -56 -38 -84 -60 -84 -11 0 -20
4 -20 8 0 19 84 135 101 139 10 3 19 9 19 14 0 5 6 9 13 9 6 0 0 -11 -14 -24z
m-740 -1013 c-1 -39 -2 -43 -9 -23 -12 36 -12 70 0 70 6 0 10 -21 9 -47z m11
-72 c0 -10 3 -34 6 -52 4 -19 4 -31 0 -28 -10 10 -24 99 -15 99 5 0 9 -8 9
-19z m923 -476 c-3 -9 -8 -14 -10 -11 -3 3 -2 9 2 15 9 16 15 13 8 -4z m-393
-148 c0 -4 -7 -21 -15 -37 -22 -42 -43 -159 -38 -202 5 -35 3 -38 -19 -38 -23
0 -24 2 -20 65 4 64 -21 189 -40 201 -26 16 -1 25 62 22 39 -1 70 -6 70 -11z
m324 -73 c3 -8 2 -12 -4 -9 -6 3 -10 10 -10 16 0 14 7 11 14 -7z m-454 -144
c0 -42 -4 -59 -15 -63 -22 -9 -23 2 -12 70 13 76 27 72 27 -7z m147 0 c1 -21
4 -45 5 -52 2 -7 -6 -13 -17 -13 -17 0 -20 6 -19 41 1 79 26 99 31 24z m970
-662 c-3 -8 -6 -5 -6 6 -1 11 2 17 5 13 3 -3 4 -12 1 -19z m-73 -27 c3 -5 -3
-11 -15 -14 -16 -4 -18 -3 -8 9 13 16 16 17 23 5z"/>
</g>
</svg>
